REM DIRINDEX 1\2\4,1\2\5,1\2\6,1\3\7,1\3\8
REM DIRNAME cjc128,folder01,folder02,folder03,folder04,folder05,folder06,folder07
TITLE ""
FILE "007_Lesson 06_Output_Stage.mp3" MP3
  TRACK 01 AUDIO
    TITLE "0:"
    INDEX 01 00:00:00
  TRACK 02 AUDIO
    TITLE "8:cjc128_2654"
    INDEX 01 00:00:11
  TRACK 03 AUDIO
    TITLE "0:"
    INDEX 01 00:02:67
  TRACK 04 AUDIO
    TITLE "8:cjc128_2655"
    INDEX 01 00:03:17
  TRACK 05 AUDIO
    TITLE "0:"
    INDEX 01 00:05:05
  TRACK 06 AUDIO
    TITLE "7:cjc128_2656"
    INDEX 01 00:05:65
  TRACK 07 AUDIO
    TITLE "0:"
    INDEX 01 00:07:66
  TRACK 08 AUDIO
    TITLE "8:cjc128_2657"
    INDEX 01 00:10:37
  TRACK 09 AUDIO
    TITLE "0:"
    INDEX 01 00:12:18
  TRACK 10 AUDIO
    TITLE "7:cjc128_2658"
    INDEX 01 00:12:71
  TRACK 11 AUDIO
    TITLE "0:"
    INDEX 01 00:15:30
  TRACK 12 AUDIO
    TITLE "8:cjc128_2659"
    INDEX 01 00:18:17
  TRACK 13 AUDIO
    TITLE "0:"
    INDEX 01 00:20:04
  TRACK 14 AUDIO
    TITLE "7:cjc128_2660"
    INDEX 01 00:20:63
  TRACK 15 AUDIO
    TITLE "0:"
    INDEX 01 00:22:62
  TRACK 16 AUDIO
    TITLE "8:cjc128_2661"
    INDEX 01 00:25:27
  TRACK 17 AUDIO
    TITLE "0:"
    INDEX 01 00:27:16
  TRACK 18 AUDIO
    TITLE "7:cjc128_2662"
    INDEX 01 00:28:02
  TRACK 19 AUDIO
    TITLE "0:"
    INDEX 01 00:29:70
  TRACK 20 AUDIO
    TITLE "8:cjc128_2663"
    INDEX 01 00:32:31
  TRACK 21 AUDIO
    TITLE "0:"
    INDEX 01 00:34:26
  TRACK 22 AUDIO
    TITLE "7:cjc128_2664"
    INDEX 01 00:35:10
  TRACK 23 AUDIO
    TITLE "0:"
    INDEX 01 00:38:02
  TRACK 24 AUDIO
    TITLE "8:cjc128_2665"
    INDEX 01 00:41:38
  TRACK 25 AUDIO
    TITLE "0:"
    INDEX 01 00:43:15
  TRACK 26 AUDIO
    TITLE "7:cjc128_2666"
    INDEX 01 00:43:74
  TRACK 27 AUDIO
    TITLE "0:"
    INDEX 01 00:45:59
  TRACK 28 AUDIO
    TITLE "8:cjc128_2667"
    INDEX 01 00:48:22
  TRACK 29 AUDIO
    TITLE "0:"
    INDEX 01 00:50:07
  TRACK 30 AUDIO
    TITLE "7:cjc128_2668"
    INDEX 01 00:50:64
  TRACK 31 AUDIO
    TITLE "0:"
    INDEX 01 00:53:62
  TRACK 32 AUDIO
    TITLE "8:cjc128_2669"
    INDEX 01 00:57:33
  TRACK 33 AUDIO
    TITLE "0:"
    INDEX 01 00:58:71
  TRACK 34 AUDIO
    TITLE "7:cjc128_2670"
    INDEX 01 00:59:59
  TRACK 35 AUDIO
    TITLE "0:"
    INDEX 01 01:01:33
  TRACK 36 AUDIO
    TITLE "8:cjc128_2671"
    INDEX 01 01:03:57
  TRACK 37 AUDIO
    TITLE "0:"
    INDEX 01 01:05:46
  TRACK 38 AUDIO
    TITLE "7:cjc128_2672"
    INDEX 01 01:06:32
  TRACK 39 AUDIO
    TITLE "0:"
    INDEX 01 01:08:25
  TRACK 40 AUDIO
    TITLE "8:cjc128_2673"
    INDEX 01 01:11:00
  TRACK 41 AUDIO
    TITLE "0:"
    INDEX 01 01:12:68
  TRACK 42 AUDIO
    TITLE "7:cjc128_2674"
    INDEX 01 01:13:49
  TRACK 43 AUDIO
    TITLE "0:"
    INDEX 01 01:15:60
  TRACK 44 AUDIO
    TITLE "8:cjc128_2675"
    INDEX 01 01:18:43
  TRACK 45 AUDIO
    TITLE "0:"
    INDEX 01 01:20:32
  TRACK 46 AUDIO
    TITLE "7:cjc128_2676"
    INDEX 01 01:21:20
  TRACK 47 AUDIO
    TITLE "0:"
    INDEX 01 01:23:40
  TRACK 48 AUDIO
    TITLE "8:cjc128_2677"
    INDEX 01 01:26:34
  TRACK 49 AUDIO
    TITLE "0:"
    INDEX 01 01:28:25
  TRACK 50 AUDIO
    TITLE "7:cjc128_2678"
    INDEX 01 01:29:15
  TRACK 51 AUDIO
    TITLE "0:"
    INDEX 01 01:31:26
  TRACK 52 AUDIO
    TITLE "8:cjc128_2679"
    INDEX 01 01:34:14
  TRACK 53 AUDIO
    TITLE "0:"
    INDEX 01 01:36:07
  TRACK 54 AUDIO
    TITLE "7:cjc128_2680"
    INDEX 01 01:36:62
  TRACK 55 AUDIO
    TITLE "0:"
    INDEX 01 01:39:14
  TRACK 56 AUDIO
    TITLE "8:cjc128_2681"
    INDEX 01 01:42:16
  TRACK 57 AUDIO
    TITLE "0:"
    INDEX 01 01:44:07
  TRACK 58 AUDIO
    TITLE "7:cjc128_2682"
    INDEX 01 01:44:72
  TRACK 59 AUDIO
    TITLE "0:"
    INDEX 01 01:47:29
  TRACK 60 AUDIO
    TITLE "8:cjc128_2683"
    INDEX 01 01:50:25
  TRACK 61 AUDIO
    TITLE "0:"
    INDEX 01 01:52:20
  TRACK 62 AUDIO
    TITLE "7:cjc128_2684"
    INDEX 01 01:52:73
  TRACK 63 AUDIO
    TITLE "0:"
    INDEX 01 01:55:73
  TRACK 64 AUDIO
    TITLE "8:cjc128_2685"
    INDEX 01 01:59:40
  TRACK 65 AUDIO
    TITLE "0:"
    INDEX 01 02:01:25
  TRACK 66 AUDIO
    TITLE "7:cjc128_2686"
    INDEX 01 02:02:13
  TRACK 67 AUDIO
    TITLE "0:"
    INDEX 01 02:04:41
  TRACK 68 AUDIO
    TITLE "8:cjc128_2687"
    INDEX 01 02:07:51
  TRACK 69 AUDIO
    TITLE "0:"
    INDEX 01 02:09:44
  TRACK 70 AUDIO
    TITLE "7:cjc128_2688"
    INDEX 01 02:10:24
  TRACK 71 AUDIO
    TITLE "0:"
    INDEX 01 02:12:74
  TRACK 72 AUDIO
    TITLE "8:cjc128_2689"
    INDEX 01 02:16:24
  TRACK 73 AUDIO
    TITLE "0:"
    INDEX 01 02:17:61
  TRACK 74 AUDIO
    TITLE "7:cjc128_2690"
    INDEX 01 02:18:53
  TRACK 75 AUDIO
    TITLE "0:"
    INDEX 01 02:21:33
  TRACK 76 AUDIO
    TITLE "8:cjc128_2691"
    INDEX 01 02:24:57
  TRACK 77 AUDIO
    TITLE "0:"
    INDEX 01 02:26:52
  TRACK 78 AUDIO
    TITLE "7:cjc128_2692"
    INDEX 01 02:27:38
  TRACK 79 AUDIO
    TITLE "0:"
    INDEX 01 02:29:70
  TRACK 80 AUDIO
    TITLE "8:cjc128_2693"
    INDEX 01 02:32:69
  TRACK 81 AUDIO
    TITLE "0:"
    INDEX 01 02:34:56
  TRACK 82 AUDIO
    TITLE "7:cjc128_2694"
    INDEX 01 02:35:43
  TRACK 83 AUDIO
    TITLE "0:"
    INDEX 01 02:38:32
  TRACK 84 AUDIO
    TITLE "8:cjc128_2695"
    INDEX 01 02:41:69
  TRACK 85 AUDIO
    TITLE "0:"
    INDEX 01 02:43:63
  TRACK 86 AUDIO
    TITLE "7:cjc128_2696"
    INDEX 01 02:44:48
  TRACK 87 AUDIO
    TITLE "0:"
    INDEX 01 02:47:03
  TRACK 88 AUDIO
    TITLE "8:cjc128_2697"
    INDEX 01 02:50:08
  TRACK 89 AUDIO
    TITLE "0:"
    INDEX 01 02:52:01
  TRACK 90 AUDIO
    TITLE "7:cjc128_2698"
    INDEX 01 02:52:69
  TRACK 91 AUDIO
    TITLE "0:"
    INDEX 01 02:55:34
  TRACK 92 AUDIO
    TITLE "8:cjc128_2699"
    INDEX 01 02:58:46
  TRACK 93 AUDIO
    TITLE "0:"
    INDEX 01 03:00:45
  TRACK 94 AUDIO
    TITLE "7:cjc128_2700"
    INDEX 01 03:01:25
  TRACK 95 AUDIO
    TITLE "0:"
    INDEX 01 03:03:53
